<svg xmlns="http://www.w3.org/2000/svg" xmlns:v="https://svgstorm.com"
viewBox = "0 0 500 500"
width="500"
height="500">
<g fill="None" fill-opacity="0.0" stroke="#000000" stroke-opacity="0.00" stroke-width="0.3"><path d="
M 0.00 500.00 
L 500.00 500.00
L 500.00 0.00
L 0.00 0.00
L 0.00 500.00
M 259.00 39.00 
C 263.44 41.58 267.91 44.51 272.00 48.00
C 274.53 50.16 277.10 52.29 279.00 55.00
C 279.16 55.23 280.00 55.00 280.00 55.00
C 284.19 57.05 288.09 62.59 291.00 66.00
C 292.66 67.94 294.38 70.11 296.00 72.00
C 308.15 86.22 318.16 102.52 324.00 120.00
C 324.59 121.26 325.44 122.50 326.00 124.00
C 331.59 138.99 336.00 155.56 336.00 172.00
C 336.27 174.75 337.00 178.58 337.00 182.00
C 337.00 187.66 336.89 193.34 337.00 199.00
C 337.04 201.20 336.21 204.61 338.00 206.00
C 340.63 201.85 343.85 198.57 348.00 196.00
C 351.11 194.09 353.53 193.72 357.00 193.00
C 360.26 192.32 362.80 192.34 366.00 193.00
C 368.70 193.56 370.58 193.42 373.00 195.00
C 374.28 195.84 376.38 195.90 376.00 198.00
C 373.69 197.55 372.93 200.53 371.00 201.00
C 367.88 206.19 365.49 212.80 365.00 219.00
C 364.49 225.39 364.49 232.61 365.00 239.00
C 365.82 249.35 368.00 259.28 368.00 270.00
C 368.20 272.10 369.00 275.23 369.00 278.00
C 369.00 281.67 369.00 285.33 369.00 289.00
C 369.33 292.46 369.33 296.61 369.00 300.00
C 369.00 302.67 369.00 305.33 369.00 308.00
C 369.00 311.43 368.26 315.31 368.00 318.00
C 368.00 345.16 356.96 372.54 341.00 394.00
C 336.97 399.41 331.23 404.87 326.00 409.00
C 319.24 414.34 312.37 418.11 305.00 422.00
C 303.74 422.67 302.45 423.38 301.00 424.00
C 299.89 424.47 298.76 426.54 297.00 426.00
C 298.57 423.72 300.67 421.43 303.00 420.00
C 305.84 417.40 309.53 414.00 312.00 411.00
C 322.90 395.43 331.69 376.31 333.00 357.00
C 333.34 352.08 333.10 346.94 333.00 342.00
C 332.62 323.02 325.02 306.01 316.00 290.00
C 314.31 287.63 311.74 285.54 310.00 283.00
C 309.57 282.37 309.38 281.62 309.00 281.00
C 305.78 277.55 301.54 272.97 298.00 270.00
C 279.51 256.79 259.51 246.00 236.00 246.00
C 233.00 246.00 230.00 246.00 227.00 246.00
C 210.07 246.00 194.83 252.00 180.00 259.00
C 178.82 259.69 177.31 261.14 176.00 262.00
C 172.90 264.04 170.10 266.08 167.00 268.00
C 161.51 272.60 156.44 277.70 152.00 283.00
C 138.79 303.06 127.95 325.10 129.00 350.00 C 130.05 374.90 138.98 393.97 153.00 414.00
C 156.80 418.62 162.53 422.02 166.00 427.00
C 166.40 427.20 167.00 427.00 167.00 427.00
C 169.08 428.29 170.94 429.74 173.00 431.00
C 172.78 432.28 170.19 432.42 170.00 431.00
C 152.34 429.50 134.09 418.27 120.00 408.00
C 114.46 403.96 109.49 399.26 105.00 394.00
C 87.10 373.05 75.00 344.81 75.00 317.00
C 75.00 316.31 72.33 312.35 76.00 313.00
C 75.94 314.89 77.42 316.29 78.00 318.00
C 83.97 328.38 90.20 338.71 96.00 349.00
C 96.89 350.24 99.72 350.74 99.00 353.00
C 100.60 352.47 99.72 350.25 100.00 349.00
C 98.09 337.02 96.00 325.54 96.00 313.00
C 95.73 310.18 95.73 306.76 96.00 304.00
C 96.00 283.78 102.58 264.73 115.00 249.00
C 120.08 242.56 125.63 237.03 132.00 232.00
C 138.75 226.67 145.98 221.53 153.00 217.00
C 157.41 213.38 161.51 208.73 166.00 205.00
C 167.22 203.99 168.03 203.17 169.00 202.00
C 171.05 199.53 174.07 197.35 176.00 195.00
C 179.21 190.24 183.05 185.13 186.00 180.00
C 187.29 177.76 188.97 175.09 190.00 173.00
C 193.42 163.49 197.18 154.35 198.00 144.00
C 198.25 140.81 198.25 137.19 198.00 134.00
C 197.22 124.19 193.68 112.62 186.00 106.00
C 184.06 104.32 181.66 102.83 179.00 103.00
C 181.61 101.44 187.46 101.28 190.00 103.00
C 197.96 104.29 204.16 106.59 211.00 111.00
C 216.36 114.46 220.43 118.79 224.00 124.00
C 233.95 138.51 235.57 156.01 238.00 173.00
C 247.59 164.83 248.13 151.88 251.33 139.33 C 254.53 126.78 255.71 110.36 257.00 97.00
C 257.11 94.01 257.00 90.99 257.00 88.00
C 257.00 82.67 257.00 77.33 257.00 72.00
C 257.00 69.03 257.23 65.96 257.00 63.00
C 256.34 54.72 253.00 46.23 253.00 38.00
C 253.00 37.74 251.10 35.95 252.00 35.00
C 254.76 34.86 257.53 36.87 259.00 39.00
M 232.00 366.00 
C 231.56 366.16 231.00 366.00 231.00 366.00
C 230.56 365.92 229.37 365.22 229.00 365.00
C 224.56 362.29 221.08 357.24 217.25 353.75 C 213.42 350.27 209.27 345.88 205.75 342.25 C 202.23 338.62 197.25 334.39 194.25 330.75 C 191.25 327.11 184.67 322.77 182.75 319.25 C 180.83 315.73 170.26 310.43 171.00 307.00
C 171.63 302.46 187.19 305.68 193.00 305.00 C 198.81 304.32 210.93 305.26 218.00 305.00 C 225.07 304.74 234.29 304.98 242.00 305.00 C 249.71 305.02 259.02 304.72 267.00 305.00 C 274.98 305.28 283.98 304.27 292.00 305.00
C 295.09 305.97 283.96 317.13 280.25 320.25 C 276.54 323.36 268.49 332.62 264.25 336.25 C 260.01 339.87 252.29 349.25 248.25 352.25 C 244.21 355.25 235.40 368.36 232.00 366.00
M 177.00 325.00 
C 183.61 330.93 190.16 337.39 196.00 344.00
C 197.29 345.25 198.76 346.20 199.00 348.00
C 197.46 351.67 191.54 355.27 189.25 358.25 C 186.95 361.23 181.20 365.89 179.25 368.25 C 177.30 370.60 169.64 378.12 169.00 377.00
C 166.55 372.68 169.60 363.15 169.00 358.00 C 168.40 352.85 168.17 344.19 169.00 339.00 C 169.83 333.81 166.41 323.41 169.00 319.00
C 170.25 316.86 175.58 323.72 177.00 325.00
M 296.00 377.00 
C 294.06 379.01 283.03 367.13 280.25 363.75 C 277.46 360.37 266.90 352.56 265.00 348.00
C 267.28 342.54 275.57 336.95 279.75 332.75 C 283.94 328.55 289.60 320.25 295.00 318.00
C 298.75 321.61 295.09 331.49 296.00 337.00 C 296.91 342.51 295.87 350.97 296.00 357.00 C 296.13 363.03 296.55 370.87 296.00 377.00
M 206.00 355.00 
C 206.36 355.23 207.00 355.00 207.00 355.00
C 214.93 358.88 219.18 370.54 227.00 374.00
C 232.23 375.68 237.56 373.89 242.00 371.00
C 244.53 369.06 247.55 363.87 250.25 362.25 C 252.95 360.63 256.74 353.56 259.00 355.00
C 259.36 355.23 260.00 355.00 260.00 355.00
C 266.19 358.03 270.48 365.77 275.75 370.25 C 281.03 374.72 286.71 380.68 291.00 386.00
C 292.78 388.21 294.58 388.39 292.00 390.00
C 286.18 393.63 276.24 390.14 269.00 391.00 C 261.76 391.86 252.54 390.86 245.00 391.00 C 237.46 391.14 227.41 391.43 220.00 391.00 C 212.59 390.57 202.72 392.36 196.00 391.00 C 189.28 389.64 176.51 394.51 172.00 390.00
C 169.74 387.74 179.33 380.34 181.75 377.75 C 184.18 375.17 190.97 368.04 193.75 365.75 C 196.53 363.47 203.83 353.62 206.00 355.00 Z"/>
</g>
<g fill="None" fill-opacity="0.0" stroke="#F8D9B2" stroke-opacity="0.33" stroke-width="0.3"><path d="
M 253.00 38.00 
C 254.01 34.83 256.62 37.62 259.00 39.00
C 257.53 36.87 254.76 34.86 252.00 35.00
C 251.10 35.95 253.00 37.74 253.00 38.00 Z"/>
</g>
<g fill="None" fill-opacity="0.0" stroke="#F6942D" stroke-opacity="0.98" stroke-width="0.3"><path d="
M 253.00 38.00 
C 253.00 46.23 256.34 54.72 257.00 63.00
C 257.51 65.62 258.00 68.75 258.00 72.00
C 258.00 77.33 258.00 82.67 258.00 88.00
C 258.00 91.19 257.35 94.52 257.00 97.00
C 255.71 110.36 254.53 126.78 251.33 139.33 C 248.13 151.88 247.59 164.83 238.00 173.00
C 235.57 156.01 233.95 138.51 224.00 124.00
C 220.12 119.55 215.52 114.67 211.00 111.00
C 204.16 106.59 197.96 104.29 190.00 103.00
C 188.00 102.97 186.00 103.03 184.00 103.00
C 184.30 104.25 185.83 104.71 186.00 106.00
C 193.68 112.62 197.22 124.19 198.00 134.00
C 198.68 137.51 198.67 140.55 198.00 144.00
C 197.18 154.35 193.42 163.49 190.00 173.00
C 188.94 175.95 187.71 177.61 186.00 180.00
C 183.05 185.13 179.21 190.24 176.00 195.00
C 175.09 196.34 173.99 197.80 173.00 199.00
C 170.00 202.65 166.54 205.98 163.00 209.00
C 159.73 211.80 156.55 214.71 153.00 217.00
C 145.98 221.53 138.75 226.67 132.00 232.00
C 126.37 237.20 120.16 243.42 115.00 249.00
C 102.58 264.73 96.00 283.78 96.00 304.00
C 96.00 307.00 96.00 310.00 96.00 313.00
C 96.00 325.54 98.09 337.02 100.00 349.00
C 100.20 350.23 102.60 353.89 100.00 355.00
C 98.65 352.95 97.30 351.04 96.00 349.00
C 90.20 338.71 83.97 328.38 78.00 318.00
C 77.42 317.34 73.42 314.05 75.00 317.00
C 75.00 344.81 87.10 373.05 105.00 394.00
C 109.82 398.82 115.17 403.54 120.00 408.00
C 134.09 418.27 152.34 429.50 170.00 431.00
C 168.86 430.19 167.88 428.03 167.00 427.00
C 167.00 427.00 166.40 427.20 166.00 427.00
C 161.51 424.80 155.79 417.99 153.00 414.00
C 138.98 393.97 130.05 374.90 129.00 350.00 C 127.95 325.10 138.79 303.06 152.00 283.00
C 155.86 277.14 161.06 271.68 167.00 268.00
C 170.10 266.08 172.90 264.04 176.00 262.00
C 177.43 260.85 178.18 259.86 180.00 259.00
C 194.83 252.00 210.07 246.00 227.00 246.00
C 229.82 245.73 233.24 245.73 236.00 246.00
C 259.51 246.00 279.51 256.79 298.00 270.00
C 301.78 272.70 306.60 277.06 309.00 281.00
C 309.38 281.62 309.57 282.37 310.00 283.00
C 312.24 285.40 314.35 287.07 316.00 290.00
C 325.02 306.01 332.62 323.02 333.00 342.00
C 333.59 346.85 333.87 352.17 333.00 357.00
C 331.69 376.31 322.90 395.43 312.00 411.00
C 309.94 413.94 304.66 422.45 305.00 422.00
C 312.37 418.11 319.24 414.34 326.00 409.00
C 330.86 404.51 336.71 398.93 341.00 394.00
C 356.96 372.54 368.00 345.16 368.00 318.00
C 368.00 314.58 368.74 310.69 369.00 308.00
C 369.00 305.33 369.00 302.67 369.00 300.00
C 369.00 296.33 369.00 292.67 369.00 289.00
C 369.00 285.33 369.00 281.67 369.00 278.00
C 368.80 275.90 368.00 272.77 368.00 270.00
C 368.00 259.28 365.82 249.35 365.00 239.00
C 363.80 232.79 363.81 225.15 365.00 219.00
C 365.49 212.80 367.88 206.19 371.00 201.00
C 372.33 198.79 374.93 197.67 373.00 195.00
C 370.58 193.42 368.70 193.56 366.00 193.00
C 363.16 192.74 359.84 192.74 357.00 193.00
C 353.53 193.72 351.11 194.09 348.00 196.00
C 343.77 199.31 339.97 204.81 337.00 209.00
C 334.87 206.57 336.53 202.18 336.00 199.00
C 336.00 193.33 336.00 187.67 336.00 182.00
C 336.00 178.67 336.00 175.33 336.00 172.00
C 336.00 155.56 331.59 138.99 326.00 124.00
C 325.30 122.64 324.55 121.65 324.00 120.00
C 318.16 102.52 308.15 86.22 296.00 72.00
C 290.41 66.41 284.54 60.54 279.00 55.00
C 276.74 52.74 274.21 50.21 272.00 48.00
C 267.91 44.51 263.44 41.58 259.00 39.00
C 256.62 37.62 254.01 34.83 253.00 38.00 Z"/>
</g>
<g fill="None" fill-opacity="0.0" stroke="#FEE4B4" stroke-opacity="0.29" stroke-width="0.3"><path d="
M 279.00 55.00 
C 277.10 52.29 274.53 50.16 272.00 48.00
C 274.21 50.21 276.74 52.74 279.00 55.00 Z"/>
</g>
<g fill="None" fill-opacity="0.0" stroke="#F0BE87" stroke-opacity="0.62" stroke-width="0.3"><path d="
M 296.00 72.00 
C 294.38 70.11 292.66 67.94 291.00 66.00
C 287.39 62.39 282.94 59.21 280.00 55.00
C 280.00 55.00 279.16 55.23 279.00 55.00
C 284.54 60.54 290.41 66.41 296.00 72.00 Z"/>
</g>
<g fill="None" fill-opacity="0.0" stroke="#FFF9E2" stroke-opacity="0.04" stroke-width="0.3"><path d="
M 291.00 66.00 
C 288.09 62.59 284.19 57.05 280.00 55.00
C 282.94 59.21 287.39 62.39 291.00 66.00 Z"/>
</g>
<g fill="None" fill-opacity="0.0" stroke="#F5CF9D" stroke-opacity="0.47" stroke-width="0.3"><path d="
M 257.00 72.00 
C 257.00 71.96 258.00 72.00 258.00 72.00
C 258.00 68.75 257.51 65.62 257.00 63.00
C 257.23 65.96 257.00 69.03 257.00 72.00 Z"/>
</g>
<g fill="None" fill-opacity="0.0" stroke="#FFEFCF" stroke-opacity="0.09" stroke-width="0.3"><path d="
M 257.00 88.00 
C 257.00 87.96 258.00 88.00 258.00 88.00
C 258.00 82.67 258.00 77.33 258.00 72.00
C 258.00 72.00 257.00 71.96 257.00 72.00
C 257.00 77.33 257.00 82.67 257.00 88.00 Z"/>
</g>
<g fill="None" fill-opacity="0.0" stroke="#FAD9B1" stroke-opacity="0.35" stroke-width="0.3"><path d="
M 257.00 97.00 
C 257.35 94.52 258.00 91.19 258.00 88.00
C 258.00 88.00 257.00 87.96 257.00 88.00
C 257.00 90.99 257.11 94.01 257.00 97.00 Z"/>
</g>
<g fill="None" fill-opacity="0.0" stroke="#F6D6AE" stroke-opacity="0.38" stroke-width="0.3"><path d="
M 186.00 106.00 
C 185.83 104.71 184.30 104.25 184.00 103.00
C 186.00 103.03 188.00 102.97 190.00 103.00
C 187.46 101.28 181.61 101.44 179.00 103.00
C 181.66 102.83 184.06 104.32 186.00 106.00 Z"/>
</g>
<g fill="None" fill-opacity="0.0" stroke="#FDE7BE" stroke-opacity="0.20" stroke-width="0.3"><path d="
M 224.00 124.00 
C 220.43 118.79 216.36 114.46 211.00 111.00
C 215.52 114.67 220.12 119.55 224.00 124.00 Z"/>
</g>
<g fill="None" fill-opacity="0.0" stroke="#FAE0B0" stroke-opacity="0.31" stroke-width="0.3"><path d="
M 326.00 124.00 
C 325.44 122.50 324.59 121.26 324.00 120.00
C 324.55 121.65 325.30 122.64 326.00 124.00 Z"/>
</g>
<g fill="None" fill-opacity="0.0" stroke="#FBBE77" stroke-opacity="0.62" stroke-width="0.3"><path d="
M 198.00 144.00 
C 198.67 140.55 198.68 137.51 198.00 134.00
C 198.25 137.19 198.25 140.81 198.00 144.00 Z"/>
</g>
<g fill="None" fill-opacity="0.0" stroke="#F9D4A9" stroke-opacity="0.40" stroke-width="0.3"><path d="
M 336.00 182.00 
C 336.00 181.96 337.00 182.00 337.00 182.00
C 337.00 178.58 336.27 174.75 336.00 172.00
C 336.00 175.33 336.00 178.67 336.00 182.00 Z"/>
</g>
<g fill="None" fill-opacity="0.0" stroke="#FFE7BB" stroke-opacity="0.23" stroke-width="0.3"><path d="
M 186.00 180.00 
C 187.71 177.61 188.94 175.95 190.00 173.00
C 188.97 175.09 187.29 177.76 186.00 180.00 Z"/>
</g>
<g fill="None" fill-opacity="0.0" stroke="#EAB881" stroke-opacity="0.73" stroke-width="0.3"><path d="
M 336.00 199.00 
C 336.00 198.96 337.00 199.00 337.00 199.00
C 336.89 193.34 337.00 187.66 337.00 182.00
C 337.00 182.00 336.00 181.96 336.00 182.00
C 336.00 187.67 336.00 193.33 336.00 199.00 Z"/>
</g>
<g fill="None" fill-opacity="0.0" stroke="#FFDBA7" stroke-opacity="0.30" stroke-width="0.3"><path d="
M 357.00 193.00 
C 359.84 192.74 363.16 192.74 366.00 193.00
C 362.80 192.34 360.26 192.32 357.00 193.00 Z"/>
</g>
<g fill="None" fill-opacity="0.0" stroke="#FEF2D8" stroke-opacity="0.11" stroke-width="0.3"><path d="
M 169.00 202.00 
C 170.11 200.90 171.95 200.05 173.00 199.00
C 173.99 197.80 175.09 196.34 176.00 195.00
C 174.07 197.35 171.05 199.53 169.00 202.00 Z"/>
</g>
<g fill="None" fill-opacity="0.0" stroke="#F8DCBB" stroke-opacity="0.29" stroke-width="0.3"><path d="
M 371.00 201.00 
C 372.93 200.53 373.69 197.55 376.00 198.00
C 376.38 195.90 374.28 195.84 373.00 195.00
C 374.93 197.67 372.33 198.79 371.00 201.00 Z"/>
</g>
<g fill="None" fill-opacity="0.0" stroke="#FBDBB1" stroke-opacity="0.31" stroke-width="0.3"><path d="
M 337.00 199.00 
C 337.00 199.00 336.00 198.96 336.00 199.00
C 336.53 202.18 334.87 206.57 337.00 209.00
C 339.97 204.81 343.77 199.31 348.00 196.00
C 343.85 198.57 340.63 201.85 338.00 206.00
C 336.21 204.61 337.04 201.20 337.00 199.00 Z"/>
</g>
<g fill="None" fill-opacity="0.0" stroke="#F1C085" stroke-opacity="0.65" stroke-width="0.3"><path d="
M 169.00 202.00 
C 168.03 203.17 167.22 203.99 166.00 205.00
C 164.90 206.11 164.04 207.92 163.00 209.00
C 166.54 205.98 170.00 202.65 173.00 199.00
C 171.95 200.05 170.11 200.90 169.00 202.00 Z"/>
</g>
<g fill="None" fill-opacity="0.0" stroke="#FEEACC" stroke-opacity="0.14" stroke-width="0.3"><path d="
M 153.00 217.00 
C 156.55 214.71 159.73 211.80 163.00 209.00
C 164.04 207.92 164.90 206.11 166.00 205.00
C 161.51 208.73 157.41 213.38 153.00 217.00 Z"/>
</g>
<g fill="None" fill-opacity="0.0" stroke="#FADFB0" stroke-opacity="0.31" stroke-width="0.3"><path d="
M 365.00 239.00 
C 364.49 232.61 364.49 225.39 365.00 219.00
C 363.81 225.15 363.80 232.79 365.00 239.00 Z"/>
</g>
<g fill="None" fill-opacity="0.0" stroke="#FCE0B8" stroke-opacity="0.29" stroke-width="0.3"><path d="
M 115.00 249.00 
C 120.16 243.42 126.37 237.20 132.00 232.00
C 125.63 237.03 120.08 242.56 115.00 249.00 Z"/>
</g>
<g fill="None" fill-opacity="0.0" stroke="#FEC98C" stroke-opacity="0.46" stroke-width="0.3"><path d="
M 227.00 246.00 
C 230.00 246.00 233.00 246.00 236.00 246.00
C 233.24 245.73 229.82 245.73 227.00 246.00 Z"/>
</g>
<g fill="None" fill-opacity="0.0" stroke="#FFE0BF" stroke-opacity="0.25" stroke-width="0.3"><path d="
M 176.00 262.00 
C 177.31 261.14 178.82 259.69 180.00 259.00
C 178.18 259.86 177.43 260.85 176.00 262.00 Z"/>
</g>
<g fill="None" fill-opacity="0.0" stroke="#F9DBB2" stroke-opacity="0.34" stroke-width="0.3"><path d="
M 152.00 283.00 
C 156.44 277.70 161.51 272.60 167.00 268.00
C 161.06 271.68 155.86 277.14 152.00 283.00 Z"/>
</g>
<g fill="None" fill-opacity="0.0" stroke="#FFDDAD" stroke-opacity="0.25" stroke-width="0.3"><path d="
M 309.00 281.00 
C 306.60 277.06 301.78 272.70 298.00 270.00
C 301.54 272.97 305.78 277.55 309.00 281.00 Z"/>
</g>
<g fill="None" fill-opacity="0.0" stroke="#FCDAB2" stroke-opacity="0.35" stroke-width="0.3"><path d="
M 369.00 278.00 
C 369.00 275.23 368.20 272.10 368.00 270.00
C 368.00 272.77 368.80 275.90 369.00 278.00 Z"/>
</g>
<g fill="None" fill-opacity="0.0" stroke="#FDE0B8" stroke-opacity="0.25" stroke-width="0.3"><path d="
M 316.00 290.00 
C 314.35 287.07 312.24 285.40 310.00 283.00
C 311.74 285.54 314.31 287.63 316.00 290.00 Z"/>
</g>
<g fill="None" fill-opacity="0.0" stroke="#FFF1C4" stroke-opacity="0.07" stroke-width="0.3"><path d="
M 369.00 300.00 
C 369.33 296.61 369.33 292.46 369.00 289.00
C 369.00 292.67 369.00 296.33 369.00 300.00 Z"/>
</g>
<g fill="None" fill-opacity="0.0" stroke="#FFF3D8" stroke-opacity="0.06" stroke-width="0.3"><path d="
M 96.00 313.00 
C 96.00 310.00 96.00 307.00 96.00 304.00
C 95.73 306.76 95.73 310.18 96.00 313.00 Z"/>
</g>
<g fill="None" fill-opacity="0.0" stroke="#E5AF75" stroke-opacity="0.77" stroke-width="0.3"><path d="
M 171.00 307.00 
C 170.68 309.26 179.02 313.11 180.75 316.25 C 182.48 319.38 187.12 322.17 190.25 325.75 C 193.38 329.34 195.99 331.57 200.25 335.75 C 204.51 339.93 203.46 339.71 209.75 345.25 C 216.05 350.78 222.85 359.26 229.00 365.00
C 229.37 365.22 230.56 365.92 231.00 366.00
C 215.15 343.30 188.59 328.10 172.00 306.00
C 212.00 306.00 252.00 306.00 292.00 306.00
C 291.77 305.64 292.00 305.00 292.00 305.00
C 283.98 304.27 274.98 305.28 267.00 305.00 C 259.02 304.72 249.71 305.02 242.00 305.00 C 234.29 304.98 225.07 304.74 218.00 305.00 C 210.93 305.26 198.81 304.32 193.00 305.00 C 187.19 305.68 171.63 302.46 171.00 307.00 Z"/>
</g>
<g fill="None" fill-opacity="0.0" stroke="#FED6A7" stroke-opacity="0.37" stroke-width="0.3"><path d="
M 292.00 306.00 
C 293.62 308.55 281.89 316.88 278.75 320.75 C 275.61 324.62 267.51 331.95 263.25 336.25 C 258.99 340.55 253.17 347.03 248.25 351.25 C 243.33 355.47 238.20 363.76 232.00 366.00
C 235.40 368.36 244.21 355.25 248.25 352.25 C 252.29 349.25 260.01 339.87 264.25 336.25 C 268.49 332.62 276.54 323.36 280.25 320.25 C 283.96 317.13 295.09 305.97 292.00 305.00
C 292.00 305.00 291.77 305.64 292.00 306.00 Z"/>
</g>
<g fill="None" fill-opacity="0.0" stroke="#F59228" stroke-opacity="1.00" stroke-width="0.3"><path d="
M 231.00 366.00 
C 231.00 366.00 231.56 366.16 232.00 366.00
C 238.20 363.76 243.33 355.47 248.25 351.25 C 253.17 347.03 258.99 340.55 263.25 336.25 C 267.51 331.95 275.61 324.62 278.75 320.75 C 281.89 316.88 293.62 308.55 292.00 306.00
C 252.00 306.00 212.00 306.00 172.00 306.00
C 188.59 328.10 215.15 343.30 231.00 366.00 Z"/>
</g>
<g fill="None" fill-opacity="0.0" stroke="#FFF3D1" stroke-opacity="0.07" stroke-width="0.3"><path d="
M 229.00 365.00 
C 222.85 359.26 216.05 350.78 209.75 345.25 C 203.46 339.71 204.51 339.93 200.25 335.75 C 195.99 331.57 193.38 329.34 190.25 325.75 C 187.12 322.17 182.48 319.38 180.75 316.25 C 179.02 313.11 170.68 309.26 171.00 307.00
C 170.26 310.43 180.83 315.73 182.75 319.25 C 184.67 322.77 191.25 327.11 194.25 330.75 C 197.25 334.39 202.23 338.62 205.75 342.25 C 209.27 345.88 213.42 350.27 217.25 353.75 C 221.08 357.24 224.56 362.29 229.00 365.00 Z"/>
</g>
<g fill="None" fill-opacity="0.0" stroke="#F6CDA3" stroke-opacity="0.47" stroke-width="0.3"><path d="
M 368.00 318.00 
C 368.26 315.31 369.00 311.43 369.00 308.00
C 368.74 310.69 368.00 314.58 368.00 318.00 Z"/>
</g>
<g fill="None" fill-opacity="0.0" stroke="#F9EBD0" stroke-opacity="0.20" stroke-width="0.3"><path d="
M 75.00 317.00 
C 73.42 314.05 77.42 317.34 78.00 318.00
C 77.42 316.29 75.94 314.89 76.00 313.00
C 72.33 312.35 75.00 316.31 75.00 317.00 Z"/>
</g>
<g fill="None" fill-opacity="0.0" stroke="#F4C799" stroke-opacity="0.55" stroke-width="0.3"><path d="
M 169.00 319.00 
C 177.91 328.93 190.34 337.03 198.00 348.00
C 198.16 347.77 199.00 348.00 199.00 348.00
C 198.76 346.20 197.29 345.25 196.00 344.00
C 189.60 337.81 183.09 331.40 177.00 325.00
C 175.58 323.72 170.25 316.86 169.00 319.00 Z"/>
</g>
<g fill="None" fill-opacity="0.0" stroke="#FDD4A1" stroke-opacity="0.38" stroke-width="0.3"><path d="
M 265.00 348.00 
C 265.07 348.18 266.00 348.00 266.00 348.00
C 272.82 338.25 285.30 325.78 295.00 319.00
C 295.00 318.50 295.00 318.00 295.00 318.00
C 289.60 320.25 283.94 328.55 279.75 332.75 C 275.57 336.95 267.28 342.54 265.00 348.00 Z"/>
</g>
<g fill="None" fill-opacity="0.0" stroke="#FEE0AF" stroke-opacity="0.25" stroke-width="0.3"><path d="
M 295.00 319.00 
C 295.00 338.00 294.99 357.00 295.00 376.00
C 295.00 376.50 295.00 377.00 295.00 377.00
C 295.40 377.20 296.00 377.00 296.00 377.00
C 296.55 370.87 296.13 363.03 296.00 357.00 C 295.87 350.97 296.91 342.51 296.00 337.00 C 295.09 331.49 298.75 321.61 295.00 318.00
C 295.00 318.00 295.00 318.50 295.00 319.00 Z"/>
</g>
<g fill="None" fill-opacity="0.0" stroke="#F1932F" stroke-opacity="1.00" stroke-width="0.3"><path d="
M 169.00 377.00 
C 177.91 367.07 190.33 358.97 198.00 348.00
C 190.34 337.03 177.91 328.93 169.00 319.00
C 166.41 323.41 169.83 333.81 169.00 339.00 C 168.17 344.19 168.40 352.85 169.00 358.00 C 169.60 363.15 166.55 372.68 169.00 377.00 Z"/>
</g>
<g fill="None" fill-opacity="0.0" stroke="#F2932D" stroke-opacity="1.00" stroke-width="0.3"><path d="
M 266.00 348.00 
C 276.71 355.89 284.15 368.42 295.00 376.00
C 294.99 357.00 295.00 338.00 295.00 319.00
C 285.30 325.78 272.82 338.25 266.00 348.00 Z"/>
</g>
<g fill="None" fill-opacity="0.0" stroke="#FFFFFF" stroke-opacity="0.00" stroke-width="0.3"><path d="
M 196.00 344.00 
C 190.16 337.39 183.61 330.93 177.00 325.00
C 183.09 331.40 189.60 337.81 196.00 344.00 Z"/>
</g>
<g fill="None" fill-opacity="0.0" stroke="#F7CB9A" stroke-opacity="0.49" stroke-width="0.3"><path d="
M 333.00 357.00 
C 333.87 352.17 333.59 346.85 333.00 342.00
C 333.10 346.94 333.34 352.08 333.00 357.00 Z"/>
</g>
<g fill="None" fill-opacity="0.0" stroke="#FCD3A0" stroke-opacity="0.38" stroke-width="0.3"><path d="
M 169.00 377.00 
C 169.64 378.12 177.30 370.60 179.25 368.25 C 181.20 365.89 186.95 361.23 189.25 358.25 C 191.54 355.27 197.46 351.67 199.00 348.00
C 199.00 348.00 198.16 347.77 198.00 348.00
C 190.33 358.97 177.91 367.07 169.00 377.00 Z"/>
</g>
<g fill="None" fill-opacity="0.0" stroke="#FFEFC9" stroke-opacity="0.07" stroke-width="0.3"><path d="
M 296.00 377.00 
C 296.00 377.00 295.40 377.20 295.00 377.00
C 289.29 374.21 285.00 367.00 280.25 362.75 C 275.49 358.51 269.61 353.17 266.00 348.00
C 266.00 348.00 265.07 348.18 265.00 348.00
C 266.90 352.56 277.46 360.37 280.25 363.75 C 283.03 367.13 294.06 379.01 296.00 377.00 Z"/>
</g>
<g fill="None" fill-opacity="0.0" stroke="#E8AF6F" stroke-opacity="0.82" stroke-width="0.3"><path d="
M 295.00 377.00 
C 295.00 377.00 295.00 376.50 295.00 376.00
C 284.15 368.42 276.71 355.89 266.00 348.00
C 269.61 353.17 275.49 358.51 280.25 362.75 C 285.00 367.00 289.29 374.21 295.00 377.00 Z"/>
</g>
<g fill="None" fill-opacity="0.0" stroke="#FEDCAC" stroke-opacity="0.27" stroke-width="0.3"><path d="
M 100.00 349.00 
C 99.72 350.25 100.60 352.47 99.00 353.00
C 99.72 350.74 96.89 350.24 96.00 349.00
C 97.30 351.04 98.65 352.95 100.00 355.00
C 102.60 353.89 100.20 350.23 100.00 349.00 Z"/>
</g>
<g fill="None" fill-opacity="0.0" stroke="#FDD4A4" stroke-opacity="0.38" stroke-width="0.3"><path d="
M 172.00 390.00 
C 181.44 377.43 194.60 366.21 206.00 355.00
C 203.83 353.62 196.53 363.47 193.75 365.75 C 190.97 368.04 184.18 375.17 181.75 377.75 C 179.33 380.34 169.74 387.74 172.00 390.00 Z"/>
</g>
<g fill="None" fill-opacity="0.0" stroke="#FDD4A4" stroke-opacity="0.38" stroke-width="0.3"><path d="
M 242.00 371.00 
C 248.46 366.79 252.66 359.28 259.00 355.00
C 256.74 353.56 252.95 360.63 250.25 362.25 C 247.55 363.87 244.53 369.06 242.00 371.00 Z"/>
</g>
<g fill="None" fill-opacity="0.0" stroke="#F4932C" stroke-opacity="1.00" stroke-width="0.3"><path d="
M 172.00 390.00 
C 212.00 390.00 252.00 390.00 292.00 390.00
C 286.24 375.94 264.83 368.97 259.00 355.00
C 252.66 359.28 248.46 366.79 242.00 371.00
C 237.56 373.89 232.23 375.68 227.00 374.00
C 225.46 373.51 224.36 372.97 223.00 372.00
C 218.15 368.56 208.29 360.48 206.00 355.00
C 194.60 366.21 181.44 377.43 172.00 390.00 Z"/>
</g>
<g fill="None" fill-opacity="0.0" stroke="#F2C089" stroke-opacity="0.64" stroke-width="0.3"><path d="
M 223.00 372.00 
C 217.70 367.54 210.94 360.64 207.00 355.00
C 207.00 355.00 206.36 355.23 206.00 355.00
C 208.29 360.48 218.15 368.56 223.00 372.00 Z"/>
</g>
<g fill="None" fill-opacity="0.0" stroke="#FEF9F0" stroke-opacity="0.05" stroke-width="0.3"><path d="
M 223.00 372.00 
C 224.36 372.97 225.46 373.51 227.00 374.00
C 219.18 370.54 214.93 358.88 207.00 355.00
C 210.94 360.64 217.70 367.54 223.00 372.00 Z"/>
</g>
<g fill="None" fill-opacity="0.0" stroke="#F1C088" stroke-opacity="0.60" stroke-width="0.3"><path d="
M 292.00 390.00 
C 294.58 388.39 292.78 388.21 291.00 386.00
C 281.23 375.72 268.14 366.63 260.00 355.00
C 260.00 355.00 259.36 355.23 259.00 355.00
C 264.83 368.97 286.24 375.94 292.00 390.00 Z"/>
</g>
<g fill="None" fill-opacity="0.0" stroke="#FFFFFF" stroke-opacity="0.00" stroke-width="0.3"><path d="
M 291.00 386.00 
C 286.71 380.68 281.03 374.72 275.75 370.25 C 270.48 365.77 266.19 358.03 260.00 355.00
C 268.14 366.63 281.23 375.72 291.00 386.00 Z"/>
</g>
<g fill="None" fill-opacity="0.0" stroke="#FFE1BD" stroke-opacity="0.25" stroke-width="0.3"><path d="
M 292.00 390.00 
C 252.00 390.00 212.00 390.00 172.00 390.00
C 176.51 394.51 189.28 389.64 196.00 391.00 C 202.72 392.36 212.59 390.57 220.00 391.00 C 227.41 391.43 237.46 391.14 245.00 391.00 C 252.54 390.86 261.76 391.86 269.00 391.00 C 276.24 390.14 286.18 393.63 292.00 390.00 Z"/>
</g>
<g fill="None" fill-opacity="0.0" stroke="#FEF0CB" stroke-opacity="0.12" stroke-width="0.3"><path d="
M 120.00 408.00 
C 115.17 403.54 109.82 398.82 105.00 394.00
C 109.49 399.26 114.46 403.96 120.00 408.00 Z"/>
</g>
<g fill="None" fill-opacity="0.0" stroke="#FFEBC5" stroke-opacity="0.16" stroke-width="0.3"><path d="
M 326.00 409.00 
C 331.23 404.87 336.97 399.41 341.00 394.00
C 336.71 398.93 330.86 404.51 326.00 409.00 Z"/>
</g>
<g fill="None" fill-opacity="0.0" stroke="#F2D2A9" stroke-opacity="0.45" stroke-width="0.3"><path d="
M 303.00 420.00 
C 302.34 420.77 300.46 424.54 301.00 424.00
C 302.45 423.38 303.74 422.67 305.00 422.00
C 304.66 422.45 309.94 413.94 312.00 411.00
C 309.53 414.00 305.84 417.40 303.00 420.00 Z"/>
</g>
<g fill="None" fill-opacity="0.0" stroke="#FEDAAB" stroke-opacity="0.30" stroke-width="0.3"><path d="
M 166.00 427.00 
C 162.53 422.02 156.80 418.62 153.00 414.00
C 155.79 417.99 161.51 424.80 166.00 427.00 Z"/>
</g>
<g fill="None" fill-opacity="0.0" stroke="#D8D8D2" stroke-opacity="0.05" stroke-width="0.3"><path d="
M 301.00 424.00 
C 300.46 424.54 302.34 420.77 303.00 420.00
C 300.67 421.43 298.57 423.72 297.00 426.00
C 298.76 426.54 299.89 424.47 301.00 424.00 Z"/>
</g>
<g fill="None" fill-opacity="0.0" stroke="#F5E2CA" stroke-opacity="0.27" stroke-width="0.3"><path d="
M 170.00 431.00 
C 170.19 432.42 172.78 432.28 173.00 431.00
C 170.94 429.74 169.08 428.29 167.00 427.00
C 167.88 428.03 168.86 430.19 170.00 431.00 Z"/>
</g>
<g fill="#000000" fill-opacity="0.00" stroke="None">
<path d="
M 0.00 500.00 
L 500.00 500.00
L 500.00 0.00
L 0.00 0.00
L 0.00 500.00
M 259.00 39.00 
C 263.44 41.58 267.91 44.51 272.00 48.00
C 274.53 50.16 277.10 52.29 279.00 55.00
C 279.16 55.23 280.00 55.00 280.00 55.00
C 284.19 57.05 288.09 62.59 291.00 66.00
C 292.66 67.94 294.38 70.11 296.00 72.00
C 308.15 86.22 318.16 102.52 324.00 120.00
C 324.59 121.26 325.44 122.50 326.00 124.00
C 331.59 138.99 336.00 155.56 336.00 172.00
C 336.27 174.75 337.00 178.58 337.00 182.00
C 337.00 187.66 336.89 193.34 337.00 199.00
C 337.04 201.20 336.21 204.61 338.00 206.00
C 340.63 201.85 343.85 198.57 348.00 196.00
C 351.11 194.09 353.53 193.72 357.00 193.00
C 360.26 192.32 362.80 192.34 366.00 193.00
C 368.70 193.56 370.58 193.42 373.00 195.00
C 374.28 195.84 376.38 195.90 376.00 198.00
C 373.69 197.55 372.93 200.53 371.00 201.00
C 367.88 206.19 365.49 212.80 365.00 219.00
C 364.49 225.39 364.49 232.61 365.00 239.00
C 365.82 249.35 368.00 259.28 368.00 270.00
C 368.20 272.10 369.00 275.23 369.00 278.00
C 369.00 281.67 369.00 285.33 369.00 289.00
C 369.33 292.46 369.33 296.61 369.00 300.00
C 369.00 302.67 369.00 305.33 369.00 308.00
C 369.00 311.43 368.26 315.31 368.00 318.00
C 368.00 345.16 356.96 372.54 341.00 394.00
C 336.97 399.41 331.23 404.87 326.00 409.00
C 319.24 414.34 312.37 418.11 305.00 422.00
C 303.74 422.67 302.45 423.38 301.00 424.00
C 299.89 424.47 298.76 426.54 297.00 426.00
C 298.57 423.72 300.67 421.43 303.00 420.00
C 305.84 417.40 309.53 414.00 312.00 411.00
C 322.90 395.43 331.69 376.31 333.00 357.00
C 333.34 352.08 333.10 346.94 333.00 342.00
C 332.62 323.02 325.02 306.01 316.00 290.00
C 314.31 287.63 311.74 285.54 310.00 283.00
C 309.57 282.37 309.38 281.62 309.00 281.00
C 305.78 277.55 301.54 272.97 298.00 270.00
C 279.51 256.79 259.51 246.00 236.00 246.00
C 233.00 246.00 230.00 246.00 227.00 246.00
C 210.07 246.00 194.83 252.00 180.00 259.00
C 178.82 259.69 177.31 261.14 176.00 262.00
C 172.90 264.04 170.10 266.08 167.00 268.00
C 161.51 272.60 156.44 277.70 152.00 283.00
C 138.79 303.06 127.95 325.10 129.00 350.00 C 130.05 374.90 138.98 393.97 153.00 414.00
C 156.80 418.62 162.53 422.02 166.00 427.00
C 166.40 427.20 167.00 427.00 167.00 427.00
C 169.08 428.29 170.94 429.74 173.00 431.00
C 172.78 432.28 170.19 432.42 170.00 431.00
C 152.34 429.50 134.09 418.27 120.00 408.00
C 114.46 403.96 109.49 399.26 105.00 394.00
C 87.10 373.05 75.00 344.81 75.00 317.00
C 75.00 316.31 72.33 312.35 76.00 313.00
C 75.94 314.89 77.42 316.29 78.00 318.00
C 83.97 328.38 90.20 338.71 96.00 349.00
C 96.89 350.24 99.72 350.74 99.00 353.00
C 100.60 352.47 99.72 350.25 100.00 349.00
C 98.09 337.02 96.00 325.54 96.00 313.00
C 95.73 310.18 95.73 306.76 96.00 304.00
C 96.00 283.78 102.58 264.73 115.00 249.00
C 120.08 242.56 125.63 237.03 132.00 232.00
C 138.75 226.67 145.98 221.53 153.00 217.00
C 157.41 213.38 161.51 208.73 166.00 205.00
C 167.22 203.99 168.03 203.17 169.00 202.00
C 171.05 199.53 174.07 197.35 176.00 195.00
C 179.21 190.24 183.05 185.13 186.00 180.00
C 187.29 177.76 188.97 175.09 190.00 173.00
C 193.42 163.49 197.18 154.35 198.00 144.00
C 198.25 140.81 198.25 137.19 198.00 134.00
C 197.22 124.19 193.68 112.62 186.00 106.00
C 184.06 104.32 181.66 102.83 179.00 103.00
C 181.61 101.44 187.46 101.28 190.00 103.00
C 197.96 104.29 204.16 106.59 211.00 111.00
C 216.36 114.46 220.43 118.79 224.00 124.00
C 233.95 138.51 235.57 156.01 238.00 173.00
C 247.59 164.83 248.13 151.88 251.33 139.33 C 254.53 126.78 255.71 110.36 257.00 97.00
C 257.11 94.01 257.00 90.99 257.00 88.00
C 257.00 82.67 257.00 77.33 257.00 72.00
C 257.00 69.03 257.23 65.96 257.00 63.00
C 256.34 54.72 253.00 46.23 253.00 38.00
C 253.00 37.74 251.10 35.95 252.00 35.00
C 254.76 34.86 257.53 36.87 259.00 39.00
M 232.00 366.00 
C 231.56 366.16 231.00 366.00 231.00 366.00
C 230.56 365.92 229.37 365.22 229.00 365.00
C 224.56 362.29 221.08 357.24 217.25 353.75 C 213.42 350.27 209.27 345.88 205.75 342.25 C 202.23 338.62 197.25 334.39 194.25 330.75 C 191.25 327.11 184.67 322.77 182.75 319.25 C 180.83 315.73 170.26 310.43 171.00 307.00
C 171.63 302.46 187.19 305.68 193.00 305.00 C 198.81 304.32 210.93 305.26 218.00 305.00 C 225.07 304.74 234.29 304.98 242.00 305.00 C 249.71 305.02 259.02 304.72 267.00 305.00 C 274.98 305.28 283.98 304.27 292.00 305.00
C 295.09 305.97 283.96 317.13 280.25 320.25 C 276.54 323.36 268.49 332.62 264.25 336.25 C 260.01 339.87 252.29 349.25 248.25 352.25 C 244.21 355.25 235.40 368.36 232.00 366.00
M 177.00 325.00 
C 183.61 330.93 190.16 337.39 196.00 344.00
C 197.29 345.25 198.76 346.20 199.00 348.00
C 197.46 351.67 191.54 355.27 189.25 358.25 C 186.95 361.23 181.20 365.89 179.25 368.25 C 177.30 370.60 169.64 378.12 169.00 377.00
C 166.55 372.68 169.60 363.15 169.00 358.00 C 168.40 352.85 168.17 344.19 169.00 339.00 C 169.83 333.81 166.41 323.41 169.00 319.00
C 170.25 316.86 175.58 323.72 177.00 325.00
M 296.00 377.00 
C 294.06 379.01 283.03 367.13 280.25 363.75 C 277.46 360.37 266.90 352.56 265.00 348.00
C 267.28 342.54 275.57 336.95 279.75 332.75 C 283.94 328.55 289.60 320.25 295.00 318.00
C 298.75 321.61 295.09 331.49 296.00 337.00 C 296.91 342.51 295.87 350.97 296.00 357.00 C 296.13 363.03 296.55 370.87 296.00 377.00
M 206.00 355.00 
C 206.36 355.23 207.00 355.00 207.00 355.00
C 214.93 358.88 219.18 370.54 227.00 374.00
C 232.23 375.68 237.56 373.89 242.00 371.00
C 244.53 369.06 247.55 363.87 250.25 362.25 C 252.95 360.63 256.74 353.56 259.00 355.00
C 259.36 355.23 260.00 355.00 260.00 355.00
C 266.19 358.03 270.48 365.77 275.75 370.25 C 281.03 374.72 286.71 380.68 291.00 386.00
C 292.78 388.21 294.58 388.39 292.00 390.00
C 286.18 393.63 276.24 390.14 269.00 391.00 C 261.76 391.86 252.54 390.86 245.00 391.00 C 237.46 391.14 227.41 391.43 220.00 391.00 C 212.59 390.57 202.72 392.36 196.00 391.00 C 189.28 389.64 176.51 394.51 172.00 390.00
C 169.74 387.74 179.33 380.34 181.75 377.75 C 184.18 375.17 190.97 368.04 193.75 365.75 C 196.53 363.47 203.83 353.62 206.00 355.00 Z"/>
</g>
<g fill="#F8D9B2" fill-opacity="0.33" stroke="None">
<path d="
M 253.00 38.00 
C 254.01 34.83 256.62 37.62 259.00 39.00
C 257.53 36.87 254.76 34.86 252.00 35.00
C 251.10 35.95 253.00 37.74 253.00 38.00 Z"/>
</g>
<g fill="#F6942D" fill-opacity="0.98" stroke="None">
<path d="
M 253.00 38.00 
C 253.00 46.23 256.34 54.72 257.00 63.00
C 257.51 65.62 258.00 68.75 258.00 72.00
C 258.00 77.33 258.00 82.67 258.00 88.00
C 258.00 91.19 257.35 94.52 257.00 97.00
C 255.71 110.36 254.53 126.78 251.33 139.33 C 248.13 151.88 247.59 164.83 238.00 173.00
C 235.57 156.01 233.95 138.51 224.00 124.00
C 220.12 119.55 215.52 114.67 211.00 111.00
C 204.16 106.59 197.96 104.29 190.00 103.00
C 188.00 102.97 186.00 103.03 184.00 103.00
C 184.30 104.25 185.83 104.71 186.00 106.00
C 193.68 112.62 197.22 124.19 198.00 134.00
C 198.68 137.51 198.67 140.55 198.00 144.00
C 197.18 154.35 193.42 163.49 190.00 173.00
C 188.94 175.95 187.71 177.61 186.00 180.00
C 183.05 185.13 179.21 190.24 176.00 195.00
C 175.09 196.34 173.99 197.80 173.00 199.00
C 170.00 202.65 166.54 205.98 163.00 209.00
C 159.73 211.80 156.55 214.71 153.00 217.00
C 145.98 221.53 138.75 226.67 132.00 232.00
C 126.37 237.20 120.16 243.42 115.00 249.00
C 102.58 264.73 96.00 283.78 96.00 304.00
C 96.00 307.00 96.00 310.00 96.00 313.00
C 96.00 325.54 98.09 337.02 100.00 349.00
C 100.20 350.23 102.60 353.89 100.00 355.00
C 98.65 352.95 97.30 351.04 96.00 349.00
C 90.20 338.71 83.97 328.38 78.00 318.00
C 77.42 317.34 73.42 314.05 75.00 317.00
C 75.00 344.81 87.10 373.05 105.00 394.00
C 109.82 398.82 115.17 403.54 120.00 408.00
C 134.09 418.27 152.34 429.50 170.00 431.00
C 168.86 430.19 167.88 428.03 167.00 427.00
C 167.00 427.00 166.40 427.20 166.00 427.00
C 161.51 424.80 155.79 417.99 153.00 414.00
C 138.98 393.97 130.05 374.90 129.00 350.00 C 127.95 325.10 138.79 303.06 152.00 283.00
C 155.86 277.14 161.06 271.68 167.00 268.00
C 170.10 266.08 172.90 264.04 176.00 262.00
C 177.43 260.85 178.18 259.86 180.00 259.00
C 194.83 252.00 210.07 246.00 227.00 246.00
C 229.82 245.73 233.24 245.73 236.00 246.00
C 259.51 246.00 279.51 256.79 298.00 270.00
C 301.78 272.70 306.60 277.06 309.00 281.00
C 309.38 281.62 309.57 282.37 310.00 283.00
C 312.24 285.40 314.35 287.07 316.00 290.00
C 325.02 306.01 332.62 323.02 333.00 342.00
C 333.59 346.85 333.87 352.17 333.00 357.00
C 331.69 376.31 322.90 395.43 312.00 411.00
C 309.94 413.94 304.66 422.45 305.00 422.00
C 312.37 418.11 319.24 414.34 326.00 409.00
C 330.86 404.51 336.71 398.93 341.00 394.00
C 356.96 372.54 368.00 345.16 368.00 318.00
C 368.00 314.58 368.74 310.69 369.00 308.00
C 369.00 305.33 369.00 302.67 369.00 300.00
C 369.00 296.33 369.00 292.67 369.00 289.00
C 369.00 285.33 369.00 281.67 369.00 278.00
C 368.80 275.90 368.00 272.77 368.00 270.00
C 368.00 259.28 365.82 249.35 365.00 239.00
C 363.80 232.79 363.81 225.15 365.00 219.00
C 365.49 212.80 367.88 206.19 371.00 201.00
C 372.33 198.79 374.93 197.67 373.00 195.00
C 370.58 193.42 368.70 193.56 366.00 193.00
C 363.16 192.74 359.84 192.74 357.00 193.00
C 353.53 193.72 351.11 194.09 348.00 196.00
C 343.77 199.31 339.97 204.81 337.00 209.00
C 334.87 206.57 336.53 202.18 336.00 199.00
C 336.00 193.33 336.00 187.67 336.00 182.00
C 336.00 178.67 336.00 175.33 336.00 172.00
C 336.00 155.56 331.59 138.99 326.00 124.00
C 325.30 122.64 324.55 121.65 324.00 120.00
C 318.16 102.52 308.15 86.22 296.00 72.00
C 290.41 66.41 284.54 60.54 279.00 55.00
C 276.74 52.74 274.21 50.21 272.00 48.00
C 267.91 44.51 263.44 41.58 259.00 39.00
C 256.62 37.62 254.01 34.83 253.00 38.00 Z"/>
</g>
<g fill="#FEE4B4" fill-opacity="0.29" stroke="None">
<path d="
M 279.00 55.00 
C 277.10 52.29 274.53 50.16 272.00 48.00
C 274.21 50.21 276.74 52.74 279.00 55.00 Z"/>
</g>
<g fill="#F0BE87" fill-opacity="0.62" stroke="None">
<path d="
M 296.00 72.00 
C 294.38 70.11 292.66 67.94 291.00 66.00
C 287.39 62.39 282.94 59.21 280.00 55.00
C 280.00 55.00 279.16 55.23 279.00 55.00
C 284.54 60.54 290.41 66.41 296.00 72.00 Z"/>
</g>
<g fill="#FFF9E2" fill-opacity="0.04" stroke="None">
<path d="
M 291.00 66.00 
C 288.09 62.59 284.19 57.05 280.00 55.00
C 282.94 59.21 287.39 62.39 291.00 66.00 Z"/>
</g>
<g fill="#F5CF9D" fill-opacity="0.47" stroke="None">
<path d="
M 257.00 72.00 
C 257.00 71.96 258.00 72.00 258.00 72.00
C 258.00 68.75 257.51 65.62 257.00 63.00
C 257.23 65.96 257.00 69.03 257.00 72.00 Z"/>
</g>
<g fill="#FFEFCF" fill-opacity="0.09" stroke="None">
<path d="
M 257.00 88.00 
C 257.00 87.96 258.00 88.00 258.00 88.00
C 258.00 82.67 258.00 77.33 258.00 72.00
C 258.00 72.00 257.00 71.96 257.00 72.00
C 257.00 77.33 257.00 82.67 257.00 88.00 Z"/>
</g>
<g fill="#FAD9B1" fill-opacity="0.35" stroke="None">
<path d="
M 257.00 97.00 
C 257.35 94.52 258.00 91.19 258.00 88.00
C 258.00 88.00 257.00 87.96 257.00 88.00
C 257.00 90.99 257.11 94.01 257.00 97.00 Z"/>
</g>
<g fill="#F6D6AE" fill-opacity="0.38" stroke="None">
<path d="
M 186.00 106.00 
C 185.83 104.71 184.30 104.25 184.00 103.00
C 186.00 103.03 188.00 102.97 190.00 103.00
C 187.46 101.28 181.61 101.44 179.00 103.00
C 181.66 102.83 184.06 104.32 186.00 106.00 Z"/>
</g>
<g fill="#FDE7BE" fill-opacity="0.20" stroke="None">
<path d="
M 224.00 124.00 
C 220.43 118.79 216.36 114.46 211.00 111.00
C 215.52 114.67 220.12 119.55 224.00 124.00 Z"/>
</g>
<g fill="#FAE0B0" fill-opacity="0.31" stroke="None">
<path d="
M 326.00 124.00 
C 325.44 122.50 324.59 121.26 324.00 120.00
C 324.55 121.65 325.30 122.64 326.00 124.00 Z"/>
</g>
<g fill="#FBBE77" fill-opacity="0.62" stroke="None">
<path d="
M 198.00 144.00 
C 198.67 140.55 198.68 137.51 198.00 134.00
C 198.25 137.19 198.25 140.81 198.00 144.00 Z"/>
</g>
<g fill="#F9D4A9" fill-opacity="0.40" stroke="None">
<path d="
M 336.00 182.00 
C 336.00 181.96 337.00 182.00 337.00 182.00
C 337.00 178.58 336.27 174.75 336.00 172.00
C 336.00 175.33 336.00 178.67 336.00 182.00 Z"/>
</g>
<g fill="#FFE7BB" fill-opacity="0.23" stroke="None">
<path d="
M 186.00 180.00 
C 187.71 177.61 188.94 175.95 190.00 173.00
C 188.97 175.09 187.29 177.76 186.00 180.00 Z"/>
</g>
<g fill="#EAB881" fill-opacity="0.73" stroke="None">
<path d="
M 336.00 199.00 
C 336.00 198.96 337.00 199.00 337.00 199.00
C 336.89 193.34 337.00 187.66 337.00 182.00
C 337.00 182.00 336.00 181.96 336.00 182.00
C 336.00 187.67 336.00 193.33 336.00 199.00 Z"/>
</g>
<g fill="#FFDBA7" fill-opacity="0.30" stroke="None">
<path d="
M 357.00 193.00 
C 359.84 192.74 363.16 192.74 366.00 193.00
C 362.80 192.34 360.26 192.32 357.00 193.00 Z"/>
</g>
<g fill="#FEF2D8" fill-opacity="0.11" stroke="None">
<path d="
M 169.00 202.00 
C 170.11 200.90 171.95 200.05 173.00 199.00
C 173.99 197.80 175.09 196.34 176.00 195.00
C 174.07 197.35 171.05 199.53 169.00 202.00 Z"/>
</g>
<g fill="#F8DCBB" fill-opacity="0.29" stroke="None">
<path d="
M 371.00 201.00 
C 372.93 200.53 373.69 197.55 376.00 198.00
C 376.38 195.90 374.28 195.84 373.00 195.00
C 374.93 197.67 372.33 198.79 371.00 201.00 Z"/>
</g>
<g fill="#FBDBB1" fill-opacity="0.31" stroke="None">
<path d="
M 337.00 199.00 
C 337.00 199.00 336.00 198.96 336.00 199.00
C 336.53 202.18 334.87 206.57 337.00 209.00
C 339.97 204.81 343.77 199.31 348.00 196.00
C 343.85 198.57 340.63 201.85 338.00 206.00
C 336.21 204.61 337.04 201.20 337.00 199.00 Z"/>
</g>
<g fill="#F1C085" fill-opacity="0.65" stroke="None">
<path d="
M 169.00 202.00 
C 168.03 203.17 167.22 203.99 166.00 205.00
C 164.90 206.11 164.04 207.92 163.00 209.00
C 166.54 205.98 170.00 202.65 173.00 199.00
C 171.95 200.05 170.11 200.90 169.00 202.00 Z"/>
</g>
<g fill="#FEEACC" fill-opacity="0.14" stroke="None">
<path d="
M 153.00 217.00 
C 156.55 214.71 159.73 211.80 163.00 209.00
C 164.04 207.92 164.90 206.11 166.00 205.00
C 161.51 208.73 157.41 213.38 153.00 217.00 Z"/>
</g>
<g fill="#FADFB0" fill-opacity="0.31" stroke="None">
<path d="
M 365.00 239.00 
C 364.49 232.61 364.49 225.39 365.00 219.00
C 363.81 225.15 363.80 232.79 365.00 239.00 Z"/>
</g>
<g fill="#FCE0B8" fill-opacity="0.29" stroke="None">
<path d="
M 115.00 249.00 
C 120.16 243.42 126.37 237.20 132.00 232.00
C 125.63 237.03 120.08 242.56 115.00 249.00 Z"/>
</g>
<g fill="#FEC98C" fill-opacity="0.46" stroke="None">
<path d="
M 227.00 246.00 
C 230.00 246.00 233.00 246.00 236.00 246.00
C 233.24 245.73 229.82 245.73 227.00 246.00 Z"/>
</g>
<g fill="#FFE0BF" fill-opacity="0.25" stroke="None">
<path d="
M 176.00 262.00 
C 177.31 261.14 178.82 259.69 180.00 259.00
C 178.18 259.86 177.43 260.85 176.00 262.00 Z"/>
</g>
<g fill="#F9DBB2" fill-opacity="0.34" stroke="None">
<path d="
M 152.00 283.00 
C 156.44 277.70 161.51 272.60 167.00 268.00
C 161.06 271.68 155.86 277.14 152.00 283.00 Z"/>
</g>
<g fill="#FFDDAD" fill-opacity="0.25" stroke="None">
<path d="
M 309.00 281.00 
C 306.60 277.06 301.78 272.70 298.00 270.00
C 301.54 272.97 305.78 277.55 309.00 281.00 Z"/>
</g>
<g fill="#FCDAB2" fill-opacity="0.35" stroke="None">
<path d="
M 369.00 278.00 
C 369.00 275.23 368.20 272.10 368.00 270.00
C 368.00 272.77 368.80 275.90 369.00 278.00 Z"/>
</g>
<g fill="#FDE0B8" fill-opacity="0.25" stroke="None">
<path d="
M 316.00 290.00 
C 314.35 287.07 312.24 285.40 310.00 283.00
C 311.74 285.54 314.31 287.63 316.00 290.00 Z"/>
</g>
<g fill="#FFF1C4" fill-opacity="0.07" stroke="None">
<path d="
M 369.00 300.00 
C 369.33 296.61 369.33 292.46 369.00 289.00
C 369.00 292.67 369.00 296.33 369.00 300.00 Z"/>
</g>
<g fill="#FFF3D8" fill-opacity="0.06" stroke="None">
<path d="
M 96.00 313.00 
C 96.00 310.00 96.00 307.00 96.00 304.00
C 95.73 306.76 95.73 310.18 96.00 313.00 Z"/>
</g>
<g fill="#E5AF75" fill-opacity="0.77" stroke="None">
<path d="
M 171.00 307.00 
C 170.68 309.26 179.02 313.11 180.75 316.25 C 182.48 319.38 187.12 322.17 190.25 325.75 C 193.38 329.34 195.99 331.57 200.25 335.75 C 204.51 339.93 203.46 339.71 209.75 345.25 C 216.05 350.78 222.85 359.26 229.00 365.00
C 229.37 365.22 230.56 365.92 231.00 366.00
C 215.15 343.30 188.59 328.10 172.00 306.00
C 212.00 306.00 252.00 306.00 292.00 306.00
C 291.77 305.64 292.00 305.00 292.00 305.00
C 283.98 304.27 274.98 305.28 267.00 305.00 C 259.02 304.72 249.71 305.02 242.00 305.00 C 234.29 304.98 225.07 304.74 218.00 305.00 C 210.93 305.26 198.81 304.32 193.00 305.00 C 187.19 305.68 171.63 302.46 171.00 307.00 Z"/>
</g>
<g fill="#FED6A7" fill-opacity="0.37" stroke="None">
<path d="
M 292.00 306.00 
C 293.62 308.55 281.89 316.88 278.75 320.75 C 275.61 324.62 267.51 331.95 263.25 336.25 C 258.99 340.55 253.17 347.03 248.25 351.25 C 243.33 355.47 238.20 363.76 232.00 366.00
C 235.40 368.36 244.21 355.25 248.25 352.25 C 252.29 349.25 260.01 339.87 264.25 336.25 C 268.49 332.62 276.54 323.36 280.25 320.25 C 283.96 317.13 295.09 305.97 292.00 305.00
C 292.00 305.00 291.77 305.64 292.00 306.00 Z"/>
</g>
<g fill="#F59228" fill-opacity="1.00" stroke="None">
<path d="
M 231.00 366.00 
C 231.00 366.00 231.56 366.16 232.00 366.00
C 238.20 363.76 243.33 355.47 248.25 351.25 C 253.17 347.03 258.99 340.55 263.25 336.25 C 267.51 331.95 275.61 324.62 278.75 320.75 C 281.89 316.88 293.62 308.55 292.00 306.00
C 252.00 306.00 212.00 306.00 172.00 306.00
C 188.59 328.10 215.15 343.30 231.00 366.00 Z"/>
</g>
<g fill="#FFF3D1" fill-opacity="0.07" stroke="None">
<path d="
M 229.00 365.00 
C 222.85 359.26 216.05 350.78 209.75 345.25 C 203.46 339.71 204.51 339.93 200.25 335.75 C 195.99 331.57 193.38 329.34 190.25 325.75 C 187.12 322.17 182.48 319.38 180.75 316.25 C 179.02 313.11 170.68 309.26 171.00 307.00
C 170.26 310.43 180.83 315.73 182.75 319.25 C 184.67 322.77 191.25 327.11 194.25 330.75 C 197.25 334.39 202.23 338.62 205.75 342.25 C 209.27 345.88 213.42 350.27 217.25 353.75 C 221.08 357.24 224.56 362.29 229.00 365.00 Z"/>
</g>
<g fill="#F6CDA3" fill-opacity="0.47" stroke="None">
<path d="
M 368.00 318.00 
C 368.26 315.31 369.00 311.43 369.00 308.00
C 368.74 310.69 368.00 314.58 368.00 318.00 Z"/>
</g>
<g fill="#F9EBD0" fill-opacity="0.20" stroke="None">
<path d="
M 75.00 317.00 
C 73.42 314.05 77.42 317.34 78.00 318.00
C 77.42 316.29 75.94 314.89 76.00 313.00
C 72.33 312.35 75.00 316.31 75.00 317.00 Z"/>
</g>
<g fill="#F4C799" fill-opacity="0.55" stroke="None">
<path d="
M 169.00 319.00 
C 177.91 328.93 190.34 337.03 198.00 348.00
C 198.16 347.77 199.00 348.00 199.00 348.00
C 198.76 346.20 197.29 345.25 196.00 344.00
C 189.60 337.81 183.09 331.40 177.00 325.00
C 175.58 323.72 170.25 316.86 169.00 319.00 Z"/>
</g>
<g fill="#FDD4A1" fill-opacity="0.38" stroke="None">
<path d="
M 265.00 348.00 
C 265.07 348.18 266.00 348.00 266.00 348.00
C 272.82 338.25 285.30 325.78 295.00 319.00
C 295.00 318.50 295.00 318.00 295.00 318.00
C 289.60 320.25 283.94 328.55 279.75 332.75 C 275.57 336.95 267.28 342.54 265.00 348.00 Z"/>
</g>
<g fill="#FEE0AF" fill-opacity="0.25" stroke="None">
<path d="
M 295.00 319.00 
C 295.00 338.00 294.99 357.00 295.00 376.00
C 295.00 376.50 295.00 377.00 295.00 377.00
C 295.40 377.20 296.00 377.00 296.00 377.00
C 296.55 370.87 296.13 363.03 296.00 357.00 C 295.87 350.97 296.91 342.51 296.00 337.00 C 295.09 331.49 298.75 321.61 295.00 318.00
C 295.00 318.00 295.00 318.50 295.00 319.00 Z"/>
</g>
<g fill="#F1932F" fill-opacity="1.00" stroke="None">
<path d="
M 169.00 377.00 
C 177.91 367.07 190.33 358.97 198.00 348.00
C 190.34 337.03 177.91 328.93 169.00 319.00
C 166.41 323.41 169.83 333.81 169.00 339.00 C 168.17 344.19 168.40 352.85 169.00 358.00 C 169.60 363.15 166.55 372.68 169.00 377.00 Z"/>
</g>
<g fill="#F2932D" fill-opacity="1.00" stroke="None">
<path d="
M 266.00 348.00 
C 276.71 355.89 284.15 368.42 295.00 376.00
C 294.99 357.00 295.00 338.00 295.00 319.00
C 285.30 325.78 272.82 338.25 266.00 348.00 Z"/>
</g>
<g fill="#FFFFFF" fill-opacity="0.00" stroke="None">
<path d="
M 196.00 344.00 
C 190.16 337.39 183.61 330.93 177.00 325.00
C 183.09 331.40 189.60 337.81 196.00 344.00 Z"/>
</g>
<g fill="#F7CB9A" fill-opacity="0.49" stroke="None">
<path d="
M 333.00 357.00 
C 333.87 352.17 333.59 346.85 333.00 342.00
C 333.10 346.94 333.34 352.08 333.00 357.00 Z"/>
</g>
<g fill="#FCD3A0" fill-opacity="0.38" stroke="None">
<path d="
M 169.00 377.00 
C 169.64 378.12 177.30 370.60 179.25 368.25 C 181.20 365.89 186.95 361.23 189.25 358.25 C 191.54 355.27 197.46 351.67 199.00 348.00
C 199.00 348.00 198.16 347.77 198.00 348.00
C 190.33 358.97 177.91 367.07 169.00 377.00 Z"/>
</g>
<g fill="#FFEFC9" fill-opacity="0.07" stroke="None">
<path d="
M 296.00 377.00 
C 296.00 377.00 295.40 377.20 295.00 377.00
C 289.29 374.21 285.00 367.00 280.25 362.75 C 275.49 358.51 269.61 353.17 266.00 348.00
C 266.00 348.00 265.07 348.18 265.00 348.00
C 266.90 352.56 277.46 360.37 280.25 363.75 C 283.03 367.13 294.06 379.01 296.00 377.00 Z"/>
</g>
<g fill="#E8AF6F" fill-opacity="0.82" stroke="None">
<path d="
M 295.00 377.00 
C 295.00 377.00 295.00 376.50 295.00 376.00
C 284.15 368.42 276.71 355.89 266.00 348.00
C 269.61 353.17 275.49 358.51 280.25 362.75 C 285.00 367.00 289.29 374.21 295.00 377.00 Z"/>
</g>
<g fill="#FEDCAC" fill-opacity="0.27" stroke="None">
<path d="
M 100.00 349.00 
C 99.72 350.25 100.60 352.47 99.00 353.00
C 99.72 350.74 96.89 350.24 96.00 349.00
C 97.30 351.04 98.65 352.95 100.00 355.00
C 102.60 353.89 100.20 350.23 100.00 349.00 Z"/>
</g>
<g fill="#FDD4A4" fill-opacity="0.38" stroke="None">
<path d="
M 172.00 390.00 
C 181.44 377.43 194.60 366.21 206.00 355.00
C 203.83 353.62 196.53 363.47 193.75 365.75 C 190.97 368.04 184.18 375.17 181.75 377.75 C 179.33 380.34 169.74 387.74 172.00 390.00 Z"/>
</g>
<g fill="#FDD4A4" fill-opacity="0.38" stroke="None">
<path d="
M 242.00 371.00 
C 248.46 366.79 252.66 359.28 259.00 355.00
C 256.74 353.56 252.95 360.63 250.25 362.25 C 247.55 363.87 244.53 369.06 242.00 371.00 Z"/>
</g>
<g fill="#F4932C" fill-opacity="1.00" stroke="None">
<path d="
M 172.00 390.00 
C 212.00 390.00 252.00 390.00 292.00 390.00
C 286.24 375.94 264.83 368.97 259.00 355.00
C 252.66 359.28 248.46 366.79 242.00 371.00
C 237.56 373.89 232.23 375.68 227.00 374.00
C 225.46 373.51 224.36 372.97 223.00 372.00
C 218.15 368.56 208.29 360.48 206.00 355.00
C 194.60 366.21 181.44 377.43 172.00 390.00 Z"/>
</g>
<g fill="#F2C089" fill-opacity="0.64" stroke="None">
<path d="
M 223.00 372.00 
C 217.70 367.54 210.94 360.64 207.00 355.00
C 207.00 355.00 206.36 355.23 206.00 355.00
C 208.29 360.48 218.15 368.56 223.00 372.00 Z"/>
</g>
<g fill="#FEF9F0" fill-opacity="0.05" stroke="None">
<path d="
M 223.00 372.00 
C 224.36 372.97 225.46 373.51 227.00 374.00
C 219.18 370.54 214.93 358.88 207.00 355.00
C 210.94 360.64 217.70 367.54 223.00 372.00 Z"/>
</g>
<g fill="#F1C088" fill-opacity="0.60" stroke="None">
<path d="
M 292.00 390.00 
C 294.58 388.39 292.78 388.21 291.00 386.00
C 281.23 375.72 268.14 366.63 260.00 355.00
C 260.00 355.00 259.36 355.23 259.00 355.00
C 264.83 368.97 286.24 375.94 292.00 390.00 Z"/>
</g>
<g fill="#FFFFFF" fill-opacity="0.00" stroke="None">
<path d="
M 291.00 386.00 
C 286.71 380.68 281.03 374.72 275.75 370.25 C 270.48 365.77 266.19 358.03 260.00 355.00
C 268.14 366.63 281.23 375.72 291.00 386.00 Z"/>
</g>
<g fill="#FFE1BD" fill-opacity="0.25" stroke="None">
<path d="
M 292.00 390.00 
C 252.00 390.00 212.00 390.00 172.00 390.00
C 176.51 394.51 189.28 389.64 196.00 391.00 C 202.72 392.36 212.59 390.57 220.00 391.00 C 227.41 391.43 237.46 391.14 245.00 391.00 C 252.54 390.86 261.76 391.86 269.00 391.00 C 276.24 390.14 286.18 393.63 292.00 390.00 Z"/>
</g>
<g fill="#FEF0CB" fill-opacity="0.12" stroke="None">
<path d="
M 120.00 408.00 
C 115.17 403.54 109.82 398.82 105.00 394.00
C 109.49 399.26 114.46 403.96 120.00 408.00 Z"/>
</g>
<g fill="#FFEBC5" fill-opacity="0.16" stroke="None">
<path d="
M 326.00 409.00 
C 331.23 404.87 336.97 399.41 341.00 394.00
C 336.71 398.93 330.86 404.51 326.00 409.00 Z"/>
</g>
<g fill="#F2D2A9" fill-opacity="0.45" stroke="None">
<path d="
M 303.00 420.00 
C 302.34 420.77 300.46 424.54 301.00 424.00
C 302.45 423.38 303.74 422.67 305.00 422.00
C 304.66 422.45 309.94 413.94 312.00 411.00
C 309.53 414.00 305.84 417.40 303.00 420.00 Z"/>
</g>
<g fill="#FEDAAB" fill-opacity="0.30" stroke="None">
<path d="
M 166.00 427.00 
C 162.53 422.02 156.80 418.62 153.00 414.00
C 155.79 417.99 161.51 424.80 166.00 427.00 Z"/>
</g>
<g fill="#D8D8D2" fill-opacity="0.05" stroke="None">
<path d="
M 301.00 424.00 
C 300.46 424.54 302.34 420.77 303.00 420.00
C 300.67 421.43 298.57 423.72 297.00 426.00
C 298.76 426.54 299.89 424.47 301.00 424.00 Z"/>
</g>
<g fill="#F5E2CA" fill-opacity="0.27" stroke="None">
<path d="
M 170.00 431.00 
C 170.19 432.42 172.78 432.28 173.00 431.00
C 170.94 429.74 169.08 428.29 167.00 427.00
C 167.88 428.03 168.86 430.19 170.00 431.00 Z"/>
</g>
</svg>